PathFileType	4	(X/Y/Z)	SUBJ89_3_walk_RCNL2025.trc
DataRate	CameraRate	NumFrames	NumMarkers	Units	OrigDataRate	OrigDataStartFrame	OrigNumFrames
100	100	13	25	mm	100	57	227
Frame#	Time	R_Shoulder			L_Shoulder			C7			J_Notch			R_Elbow			L_Elbow			R_Wrist			L_Wrist			R_Asis			L_Asis			Sacral			Thoracic			Sternum			R_Thigh_Lateral			R_Knee_Lateral			R_Shank_Lateral			R_Ankle_Lateral			R_Heel			R_Toe			L_Thigh_Lateral			L_Knee_Lateral			L_Shank_Lateral			L_Ankle_Lateral			L_Heel			L_Toe		
		X1	Y1	Z1	X2	Y2	Z2	X3	Y3	Z3	X4	Y4	Z4	X5	Y5	Z5	X6	Y6	Z6	X7	Y7	Z7	X8	Y8	Z8	X9	Y9	Z9	X10	Y10	Z10	X11	Y11	Z11	X12	Y12	Z12	X13	Y13	Z13	X14	Y14	Z14	X15	Y15	Z15	X16	Y16	Z16	X17	Y17	Z17	X18	Y18	Z18	X19	Y19	Z19	X20	Y20	Z20	X21	Y21	Z21	X22	Y22	Z22	X23	Y23	Z23	X24	Y24	Z24	X25	Y25	Z25
57	0.56000000	-264.409668	1403.497925	-50.328705	-303.572937	1393.237549	-462.726746	-345.744476	1490.954956	-254.407730	-230.661240	1362.348022	-254.718994	-338.060089	1074.296265	6.921116	-400.913727	1064.691650	-485.586975	-207.808533	836.966034	-17.627327	-394.251480	799.884094	-514.081604	-254.603745	960.234680	-112.995926	-237.831543	977.524780	-351.703430	-415.006256	1025.991455	-228.359421	-434.792572	1312.445190	-239.859329	-197.991577	1214.685181	-257.338409	-326.501160	577.763855	-53.271355	-357.224426	464.303345	-105.888901	-533.886230	326.792419	-67.568382	-695.308777	199.067230	-144.360260	-720.465881	223.128174	-192.449448	-637.778381	56.376717	-158.632980	-159.428177	570.989990	-426.660553	-145.290466	492.276215	-350.721558	-158.978348	258.814789	-392.048065	-161.785538	62.935246	-321.281677	-202.867340	68.849037	-274.529694	-5.666240	34.028473	-301.262360
58	0.57000000	-250.585098	1406.623047	-51.272636	-287.732910	1395.193970	-463.812042	-331.124237	1493.456787	-256.024567	-215.917786	1364.995239	-255.526077	-326.435425	1077.947876	6.357616	-384.709839	1066.427856	-486.230133	-200.404991	838.302399	-16.788775	-376.012665	801.540375	-513.372192	-239.340805	962.496277	-113.755150	-223.240982	980.226196	-352.477722	-400.178772	1028.559082	-228.459152	-420.015991	1314.773560	-241.231171	-183.041473	1217.373535	-257.653717	-302.704071	578.905334	-53.098289	-328.814636	465.349335	-105.425591	-506.945953	331.007111	-67.726791	-670.207458	205.856857	-145.043518	-694.906677	230.127716	-193.502258	-615.862183	61.479473	-156.223206	-150.879745	571.223755	-427.341492	-137.570389	492.311737	-351.225708	-155.718109	258.978394	-392.422699	-161.612564	63.139187	-321.179352	-202.635437	69.333679	-274.648651	-5.445806	33.997139	-301.215515
59	0.58000000	-236.953079	1409.704712	-52.059902	-272.163513	1397.303833	-464.764404	-316.619354	1496.052979	-257.456879	-201.345337	1367.704834	-256.218170	-315.033203	1081.608032	5.986820	-368.340332	1068.199829	-486.965485	-193.229156	839.754822	-15.885984	-357.018326	803.254364	-512.622253	-224.294296	965.052673	-114.452217	-208.836319	982.764526	-353.198151	-385.520935	1031.248169	-228.684860	-405.398895	1317.235596	-242.509598	-168.344528	1220.103638	-257.916138	-279.287415	580.646606	-52.956799	-300.385986	467.070435	-105.048752	-479.240875	335.032013	-68.008614	-643.679504	211.527054	-145.808044	-668.214050	235.740524	-194.542206	-590.814209	66.523727	-154.005722	-143.138901	571.284729	-428.079651	-130.688461	492.207489	-351.803864	-153.066223	259.061707	-392.856476	-161.551270	63.295891	-321.147705	-202.478226	69.750175	-274.797943	-5.369916	34.132652	-301.227051
60	0.59000000	-223.496597	1412.735596	-52.697178	-256.872467	1399.549927	-465.595215	-302.225403	1498.718384	-258.705597	-186.932419	1370.453003	-256.804260	-303.839661	1085.267334	5.787659	-351.783875	1069.988037	-487.791626	-186.233063	841.319122	-14.915820	-337.298187	805.025299	-511.824234	-209.466232	967.867615	-115.110870	-194.609161	985.140747	-353.871613	-371.012329	1034.024780	-229.022354	-390.931335	1319.797363	-243.690048	-153.881699	1222.857910	-258.142029	-256.231934	582.971924	-52.854473	-272.085144	469.467346	-104.739334	-450.965088	338.816467	-68.372437	-615.888550	215.941666	-146.585342	-640.513306	239.875427	-195.502640	-562.911499	71.215248	-152.124435	-135.998337	571.250061	-428.825775	-124.534180	491.999329	-352.413605	-150.853790	259.087982	-393.327148	-161.552902	63.410912	-321.173187	-202.367874	70.118301	-274.969574	-5.391131	34.337711	-301.273895
61	0.60000000	-210.189957	1415.710327	-53.197399	-241.854263	1401.917969	-466.316895	-287.938263	1501.421753	-259.775879	-172.663895	1373.214233	-257.295990	-292.840698	1088.920410	5.736172	-335.026978	1071.781860	-488.705109	-179.373978	842.990814	-13.878345	-316.887909	806.862335	-510.965561	-194.847778	970.893982	-115.759476	-180.552689	987.364258	-354.511597	-356.633484	1036.846436	-229.450623	-376.601044	1322.417358	-244.770325	-139.626450	1225.618164	-258.350311	-233.482071	585.829895	-52.792007	-244.036285	472.496735	-104.480560	-422.279266	342.281006	-68.770378	-586.982178	218.998734	-147.313431	-611.904907	242.473221	-196.330154	-532.481934	75.288277	-150.697769	-129.278549	571.179565	-429.541412	-118.995155	491.720062	-353.016296	-148.932312	259.079254	-393.809784	-161.576233	63.495003	-321.238220	-202.280304	70.456787	-275.152283	-5.468351	34.547337	-301.337067
62	0.61000000	-197.000488	1418.620117	-53.577972	-227.091309	1404.392456	-466.941101	-273.754364	1504.125977	-260.676117	-158.522964	1375.959473	-257.706543	-282.020905	1092.559692	5.807731	-318.065063	1073.575562	-489.700775	-172.612556	844.761353	-12.777027	-295.829239	808.779388	-510.030334	-180.415375	974.075684	-116.424973	-166.660370	989.447693	-355.135284	-342.367310	1039.663818	-229.944168	-362.394928	1325.047119	-245.750320	-125.548653	1228.362549	-258.560181	-210.967087	589.140442	-52.763744	-216.341141	476.076050	-104.261269	-393.303497	345.320312	-69.155548	-557.086731	220.632965	-147.942352	-582.467285	243.502701	-196.988312	-499.864777	78.530777	-149.804321	-122.848228	571.111145	-430.202698	-113.965553	491.396362	-353.581116	-147.186951	259.054138	-394.279388	-161.589981	63.560780	-321.323303	-202.196472	70.780754	-275.332428	-5.568487	34.723801	-301.402008
63	0.62000000	-183.890930	1421.448975	-53.858566	-212.556091	1406.952759	-467.477234	-259.670471	1506.788208	-261.416809	-144.493118	1378.655884	-258.049133	-271.362518	1096.171509	5.978799	-300.902405	1075.364258	-490.772156	-165.910896	846.614929	-11.618168	-274.169655	810.789978	-509.001465	-166.131073	977.349792	-117.128426	-152.923996	991.402954	-355.760620	-328.199768	1042.421997	-230.475616	-348.300201	1327.634033	-246.631317	-111.618378	1231.064331	-258.789001	-188.618958	592.805115	-52.759125	-189.079437	480.093048	-104.076912	-364.117218	347.814392	-69.488678	-526.303833	220.816193	-148.437775	-552.259094	242.957291	-197.459381	-465.380310	80.799690	-149.474304	-116.628693	571.061462	-430.800629	-109.351021	491.047272	-354.086945	-145.541092	259.026367	-394.713928	-161.573792	63.620270	-321.409576	-202.103104	71.100517	-275.495972	-5.666910	34.850300	-301.458405
64	0.63000000	-170.822525	1424.171265	-54.058796	-198.214340	1409.570435	-467.931427	-245.683304	1509.362549	-262.009186	-130.559448	1381.266724	-258.335968	-260.844482	1099.732788	6.228113	-283.551086	1077.139038	-491.911774	-159.230934	848.526825	-10.409788	-251.961098	812.902863	-507.862610	-151.947647	980.649231	-117.882812	-139.331635	993.237061	-356.404144	-314.119476	1045.063843	-231.018295	-334.305054	1330.123901	-247.415619	-97.808823	1233.690796	-259.050354	-166.384888	596.718018	-52.764866	-162.310425	484.417938	-103.928589	-334.764282	349.644623	-69.742752	-494.709381	219.555725	-148.782318	-521.320557	240.852783	-197.743881	-429.309753	82.025902	-149.688034	-110.584381	571.030945	-431.337952	-105.069969	490.684540	-354.522644	-143.952271	259.004395	-395.096649	-161.517700	63.683350	-321.480927	-201.992630	71.421379	-275.630524	-5.746969	34.924500	-301.500000
65	0.64000000	-157.758072	1426.751953	-54.196163	-184.028732	1412.207886	-468.305969	-231.788818	1511.801270	-262.464172	-116.709312	1383.751953	-258.577148	-250.442093	1103.210205	6.537287	-266.028961	1078.885376	-493.111664	-152.533459	850.462372	-9.160327	-229.258202	815.119354	-506.600571	-137.816452	983.904236	-118.692917	-125.866577	994.949646	-357.079315	-300.117096	1047.532837	-231.548584	-320.398834	1332.464600	-248.105988	-84.098007	1236.204224	-259.352570	-144.234390	600.775513	-52.767559	-136.075439	488.915039	-103.820862	-305.262299	350.710052	-69.905067	-462.353577	216.890869	-148.974838	-489.674530	237.226318	-197.857849	-391.885681	82.210541	-150.380737	-104.705170	571.009644	-431.824799	-101.051903	490.313599	-354.885742	-142.401596	258.991486	-395.417633	-161.420486	63.757030	-321.525757	-201.862564	71.744263	-275.727234	-5.798928	34.952805	-301.524109
66	0.65000000	-144.664764	1429.148071	-54.284531	-169.962433	1414.818970	-468.599823	-217.981644	1514.057983	-262.791473	-102.932320	1386.069458	-258.779968	-240.127075	1106.561157	6.890903	-248.357452	1080.580688	-494.363495	-145.777794	852.378235	-7.877500	-206.116249	817.432343	-505.206451	-123.695183	987.044861	-119.556412	-112.507957	996.530518	-357.795410	-286.184601	1049.776855	-232.047516	-306.572083	1334.608032	-248.705246	-70.469177	1238.562378	-259.698212	-122.161842	604.882080	-52.756237	-110.401619	493.452759	-103.759224	-275.614075	350.941498	-69.976875	-429.262939	212.888611	-149.027771	-457.327576	232.136536	-197.828445	-353.291046	81.415215	-151.452438	-98.987206	570.983032	-432.273285	-97.233955	489.934967	-355.180176	-140.880692	258.986176	-395.674042	-161.287079	63.845390	-321.537537	-201.713882	72.066780	-275.781708	-5.818639	34.945763	-301.530914
67	0.66000000	-131.516434	1431.312134	-54.333279	-155.982391	1417.350952	-468.809601	-204.254639	1516.088867	-262.999420	-89.219795	1388.176880	-258.948669	-229.868286	1109.735962	7.276195	-230.558899	1082.195190	-495.658936	-138.922291	854.224182	-6.567570	-182.589088	819.826538	-503.676682	-109.553230	990.002136	-120.465599	-99.232826	997.958862	-358.556671	-272.314514	1051.750244	-232.501602	-292.816132	1336.512085	-249.216080	-56.909794	1240.720825	-260.084564	-100.185371	608.953369	-52.724403	-85.306366	497.910522	-103.747993	-245.819412	350.310516	-69.970993	-395.443970	207.638840	-148.963257	-424.271149	225.664185	-197.688782	-313.664093	79.749153	-152.780838	-93.417679	570.935608	-432.693726	-93.556824	489.545563	-355.413361	-139.380203	258.983124	-395.869293	-161.125519	63.949932	-321.514191	-201.548920	72.384712	-275.793610	-5.806187	34.914761	-301.522675
68	0.67000000	-118.294800	1433.194946	-54.347168	-142.061768	1419.747192	-468.930878	-190.598541	1517.854858	-263.094879	-75.563965	1390.033447	-259.084503	-219.632812	1112.681274	7.682535	-212.654037	1083.692871	-496.989685	-131.925201	855.946014	-5.235169	-158.727730	822.280640	-502.013016	-95.373459	992.710327	-121.408951	-86.018791	999.204407	-359.361938	-258.499603	1053.416748	-232.902847	-279.122711	1338.141968	-249.640778	-43.409824	1242.635010	-260.504547	-78.343422	612.915771	-52.671196	-60.802391	502.182404	-103.788971	-215.884613	348.831940	-69.907852	-360.887512	201.250397	-148.808563	-390.483734	217.912933	-197.472717	-273.106964	77.355911	-154.235031	-87.966217	570.852417	-433.091797	-89.961502	489.139435	-355.594055	-137.882965	258.974121	-396.011383	-160.944153	64.070229	-321.457123	-201.369110	72.693542	-275.765533	-5.764605	34.869972	-301.503113
69	0.68000000	-104.989731	1434.750244	-54.326847	-128.181274	1421.950562	-468.959564	-177.001938	1519.322876	-263.083527	-61.957127	1391.601440	-259.185822	-209.387314	1115.344116	8.100885	-194.660126	1085.033813	-498.347443	-124.745880	857.488556	-3.883615	-134.579765	824.769379	-500.221817	-81.150848	995.108398	-122.372383	-72.846138	1000.229492	-360.204834	-244.732422	1054.749268	-233.248337	-265.483246	1339.470093	-249.981216	-29.959751	1244.262451	-260.948029	-56.690037	616.704590	-52.601448	-36.902496	506.178558	-103.881020	-185.828873	346.560516	-69.810730	-325.574097	193.848480	-148.591217	-355.933594	209.009460	-197.210587	-231.695679	74.401482	-155.688507	-82.582886	570.718933	-433.467712	-86.387367	488.708710	-355.730194	-136.362366	258.949158	-396.110870	-160.749420	64.204590	-321.369507	-201.173386	72.990021	-275.701416	-5.698686	34.819370	-301.476624
